<svg width="723" height="404" viewBox="0 0 723 404" fill="none" xmlns="http://www.w3.org/2000/svg">
<g clip-path="url(#clip0_4833_2390)">
<path d="M0 361.5C0 161.849 161.849 0 361.5 0C561.151 0 723 161.849 723 361.5V404H0V361.5Z" fill="url(#paint0_linear_4833_2390)"/>
<path d="M753.841 286.336C752.086 286.336 750.401 286.61 748.814 287.109C747.674 276.286 738.509 267.847 727.369 267.847C724.357 267.847 721.491 268.467 718.886 269.58C718.916 269.087 718.962 268.599 718.962 268.096C718.962 254.462 707.899 243.41 694.251 243.41C683.239 243.41 673.916 250.614 670.725 260.557C668.878 259.85 666.883 259.449 664.786 259.449C657.667 259.449 651.606 263.912 649.209 270.185C646.716 268.706 643.815 267.837 640.706 267.837C631.495 267.837 624.025 275.299 624.025 284.501C624.025 286.717 624.467 288.832 625.256 290.769C616.737 293.895 610.651 302.049 610.651 311.642C610.651 323.934 620.625 333.898 632.93 333.898C639.698 333.898 645.754 330.873 649.84 326.11C655.148 330.624 662.023 333.359 669.539 333.359C673.198 333.359 676.704 332.713 679.956 331.529C684.806 336.028 691.294 338.783 698.434 338.783C708.271 338.783 716.886 333.562 721.654 325.739C724.224 327.355 727.257 328.306 730.519 328.306C737.582 328.306 743.608 323.914 746.04 317.717C748.366 318.947 751.017 319.654 753.836 319.654C763.047 319.654 770.518 312.196 770.518 302.99C770.518 293.794 763.052 286.336 753.841 286.336Z" fill="white"/>
<path d="M185.337 344.553C185.409 357.306 178.469 368.477 168.157 374.455L-11.7369 375.442C-15.4294 370.459 -17.6685 364.285 -17.7078 357.613C-17.7995 340.772 -4.19461 327.083 12.6117 326.992C18.7529 326.959 24.4685 328.758 29.2806 331.851C33.091 319.726 44.4109 310.89 57.8194 310.818C57.6819 285.206 78.3576 264.323 103.989 264.185C129.628 264.041 150.533 284.702 150.67 310.308C169.689 310.203 185.232 325.507 185.337 344.553Z" fill="white"/>
<path d="M572.887 230.785C572.21 230.785 571.56 230.888 570.953 231.085C571.062 230.509 571.117 229.917 571.117 229.311C571.117 223.754 566.604 219.252 561.041 219.252C557.893 219.252 555.078 220.696 553.232 222.956C551.786 215.785 545.449 210.389 537.842 210.389C534.648 210.389 531.672 211.341 529.195 212.982C529.228 212.712 529.243 212.436 529.243 212.154C529.243 208.235 526.064 205.053 522.141 205.053C521.16 205.053 520.222 205.25 519.365 205.614C519.05 200.23 514.577 195.959 509.108 195.959C505.449 195.959 502.236 197.873 500.414 200.758C498.505 199.869 496.373 199.378 494.126 199.378C485.848 199.378 479.141 206.078 479.141 214.347C479.141 216.349 479.535 218.257 480.252 219.998C474.71 220.966 470.505 225.798 470.505 231.61C470.505 238.129 475.791 243.41 482.317 243.41H572.887C576.376 243.41 579.206 240.586 579.206 237.097C579.206 233.609 576.379 230.785 572.887 230.785Z" fill="white"/>
<path d="M34.7874 150.554C34.7874 155.21 36.4226 159.486 39.1455 162.842H151.798C152.128 162.668 152.45 162.482 152.773 162.288C159.722 158.089 164.363 150.468 164.363 141.765C164.363 128.525 153.619 117.781 140.366 117.781H140.083C138.731 110.521 132.357 105.038 124.697 105.038C121.038 105.038 117.67 106.291 115.006 108.391C113.972 109.198 113.048 110.129 112.26 111.173C111.502 109.861 110.624 108.627 109.634 107.498C105.353 102.597 99.0452 99.5088 92.0301 99.5088C81.1697 99.5088 72.0532 106.897 69.4236 116.92C69.307 117.339 69.2099 117.773 69.1128 118.204C68.1884 117.932 67.2056 117.785 66.1841 117.785C60.412 117.785 55.7314 122.461 55.7314 128.227C55.7314 129.22 55.8674 130.171 56.1199 131.075C55.5567 131.017 54.9701 130.986 54.3875 130.986C53.0241 130.986 51.6918 131.121 50.4177 131.393C41.4916 133.232 34.7874 141.117 34.7874 150.554Z" fill="white"/>
<path d="M310.236 27.5523C309.376 27.5493 308.538 27.6403 307.728 27.8071C304.894 20.794 298.035 15.8284 289.994 15.7889C287.274 15.7768 284.687 16.3319 282.336 17.3359C280.505 7.51087 271.909 0.0518289 261.539 0.000261756C249.794 -0.0573721 240.229 9.40975 240.171 21.1398C240.168 21.4583 240.177 21.7737 240.19 22.0862C239.931 22.068 239.676 22.0437 239.415 22.0437C232.58 22.0103 227.011 27.5189 226.978 34.3501C226.944 41.1812 232.459 46.7413 239.297 46.7747C239.922 46.7777 240.536 46.7201 241.137 46.6322C241.805 52.5563 246.812 57.1761 252.928 57.2034C257.1 57.2246 260.774 55.0983 262.924 51.8708C264.585 53.0629 266.613 53.7787 268.812 53.7909C272.298 53.8091 275.38 52.071 277.229 49.4107C280.59 52.3591 284.987 54.161 289.812 54.1852C294.926 54.2095 299.581 52.2317 303.039 48.9951C305.016 50.4754 307.46 51.3703 310.123 51.3824C316.713 51.4127 322.078 46.1043 322.111 39.5219C322.142 32.9456 316.825 27.5826 310.236 27.5523Z" fill="white"/>
</g>
<defs>
<linearGradient id="paint0_linear_4833_2390" x1="361.5" y1="0" x2="397.07" y2="348.36" gradientUnits="userSpaceOnUse">
<stop stop-color="#FFD5E3"/>
<stop offset="0.15625" stop-color="#E8E3FE"/>
<stop offset="0.791667" stop-color="#A0D2FF"/>
</linearGradient>
<clipPath id="clip0_4833_2390">
<path d="M0 361.5C0 161.849 161.849 0 361.5 0C561.151 0 723 161.849 723 361.5V404H0V361.5Z" fill="white"/>
</clipPath>
</defs>
</svg>
